<svg width="50" height="50" viewBox="0 0 50 50" fill="none" xmlns="http://www.w3.org/2000/svg">
<path d="M50 25C50 38.3789 38.7903 49.2188 24.9597 49.2188C13.4879 49.2188 3.83065 41.7676 0.866936 31.6016L10.4637 35.4395C11.1089 38.5742 13.9819 40.9473 17.4093 40.9473C21.3609 40.9473 24.6573 37.7832 24.4859 33.7695L33.004 27.8906C38.256 28.0176 42.6613 23.8965 42.6613 18.7598C42.6613 13.7207 38.4274 9.62891 33.2157 9.62891C28.004 9.62891 23.7702 13.7305 23.7702 18.7598V18.877L17.8024 27.2461C16.2399 27.1582 14.7077 27.5781 13.4173 28.4277L0 23.0566C1.02823 10.5859 11.8044 0.78125 24.9597 0.78125C38.7903 0.78125 50 11.6211 50 25ZM15.6956 37.5293L12.621 36.2988C13.186 37.4353 14.1616 38.3317 15.3629 38.8184C18.0746 39.9121 21.1895 38.6621 22.3185 36.0449C22.8629 34.7754 22.873 33.3789 22.3286 32.1094C21.7843 30.8398 20.7661 29.8438 19.4556 29.3164C18.1552 28.7891 16.7641 28.8086 15.5343 29.2578L18.7097 30.5273C20.7056 31.3281 21.6532 33.5449 20.8165 35.4785C19.9798 37.4219 17.6915 38.3301 15.6956 37.5293ZM33.2157 24.8438C29.748 24.8438 26.9254 22.1094 26.9254 18.7598C26.9254 15.4102 29.748 12.6758 33.2157 12.6758C36.6835 12.6758 39.506 15.4102 39.506 18.7598C39.506 22.1094 36.6936 24.8438 33.2157 24.8438ZM33.2258 23.3203C35.8367 23.3203 37.9536 21.2695 37.9536 18.75C37.9536 16.2207 35.8367 14.1797 33.2258 14.1797C30.6149 14.1797 28.498 16.2305 28.498 18.75C28.5081 21.2695 30.625 23.3203 33.2258 23.3203Z" fill="black"/>
</svg>
