<svg width="251" height="88" viewBox="0 0 251 88" fill="none" xmlns="http://www.w3.org/2000/svg">
<g clip-path="url(#clip0_27_147)">
<path d="M242.989 0H8.01064C3.58648 0 0 3.58172 0 8V80C0 84.4183 3.58648 88 8.01064 88H242.989C247.414 88 251 84.4183 251 80V8C251 3.58172 247.414 0 242.989 0Z" fill="#1A1A1A"/>
<g filter="url(#filter0_di_27_147)">
<path d="M150.612 17.6205L121.345 24.9522C119.915 25.3105 119.084 26.749 119.49 28.1651L130.987 68.2826C131.393 69.6987 132.882 70.5561 134.313 70.1977L163.579 62.866C165.01 62.5077 165.841 61.0692 165.435 59.6531L153.937 19.5356C153.531 18.1195 152.043 17.2621 150.612 17.6205Z" fill="#FF0000"/>
</g>
<path d="M135.659 62.384L127.967 35.5305L134.523 33.8871L137.61 44.6652L148.299 41.9862L145.212 31.2081L151.755 29.5681L159.447 56.4213L152.904 58.0613L149.813 47.2703L139.124 49.9494L142.215 60.7408L135.659 62.384Z" fill="black"/>
<g filter="url(#filter1_di_27_147)">
<path d="M191.195 17.154H160.503C159.029 17.154 157.833 18.3479 157.833 19.8206V61.0379C157.833 62.5106 159.029 63.7045 160.503 63.7045H191.195C192.67 63.7045 193.866 62.5106 193.866 61.0379V19.8206C193.866 18.3479 192.67 17.154 191.195 17.154Z" fill="#FF0000"/>
</g>
<path d="M181.435 28.9845H188.18V46.9982C188.18 49.08 187.684 50.8936 186.692 52.4391C185.699 53.9755 184.316 55.1664 182.541 56.0117C180.766 56.848 178.704 57.2661 176.355 57.2661C173.979 57.2661 171.904 56.848 170.129 56.0117C168.354 55.1664 166.975 53.9755 165.992 52.4391C165.008 50.8936 164.517 49.08 164.517 46.9982V28.9845H171.276V46.4118C171.276 47.3755 171.485 48.2346 171.904 48.9891C172.332 49.7436 172.928 50.3346 173.693 50.7618C174.457 51.1891 175.345 51.4027 176.355 51.4027C177.366 51.4027 178.249 51.1891 179.004 50.7618C179.769 50.3346 180.365 49.7436 180.793 48.9891C181.221 48.2346 181.435 47.3755 181.435 46.4118V28.9845Z" fill="black"/>
<g filter="url(#filter2_di_27_147)">
<path d="M230.647 25.1346L201.381 17.8029C199.95 17.4445 198.461 18.3019 198.056 19.718L186.558 59.8355C186.152 61.2516 186.983 62.6901 188.413 63.0484L217.68 70.3801C219.111 70.7385 220.599 69.8811 221.005 68.465L232.503 28.3475C232.909 26.9314 232.078 25.4929 230.647 25.1346Z" fill="#FF0000"/>
</g>
<path d="M195.579 56.9136L203.268 30.0594L214.579 32.8957C216.61 33.405 218.228 34.1153 219.434 35.0267C220.649 35.9403 221.454 36.9948 221.85 38.1903C222.255 39.388 222.264 40.66 221.879 42.0062C221.586 43.029 221.108 43.8882 220.445 44.5839C219.785 45.2709 219 45.7815 218.09 46.1156C217.181 46.4497 216.197 46.5965 215.139 46.5561L215.064 46.8183C216.144 47.1453 217.071 47.6917 217.846 48.4574C218.629 49.2254 219.167 50.1566 219.459 51.2512C219.754 52.337 219.716 53.5269 219.346 54.8208C218.933 56.2629 218.193 57.4592 217.126 58.4096C216.061 59.3515 214.733 59.9739 213.141 60.2779C211.552 60.5723 209.755 60.4688 207.751 59.9659L195.579 56.9136ZM203.633 53.3259L207.686 54.3424C209.108 54.6987 210.23 54.6944 211.054 54.3296C211.887 53.9669 212.439 53.3089 212.712 52.3561C212.91 51.6654 212.917 51.0301 212.733 50.4499C212.551 49.8609 212.199 49.3557 211.676 48.9341C211.156 48.5038 210.476 48.1835 209.637 47.9732L205.465 46.927L203.633 53.3259ZM206.663 42.7441L210.292 43.6541C211.007 43.8334 211.677 43.8749 212.301 43.7783C212.924 43.6818 213.455 43.4494 213.892 43.081C214.337 42.7149 214.65 42.2172 214.83 41.5878C215.088 40.6874 214.968 39.8985 214.472 39.2211C213.974 38.5437 213.179 38.0677 212.084 37.7932L208.349 36.8566L206.663 42.7441Z" fill="black"/>
<path d="M38.7359 41.2237C38.5447 40.5601 38.2762 39.9737 37.9303 39.4646C37.5843 38.9465 37.161 38.5101 36.6604 38.1555C36.1688 37.7919 35.6045 37.5146 34.9672 37.3237C34.3391 37.1328 33.6428 37.0373 32.8781 37.0373C31.4489 37.0373 30.1927 37.3919 29.1094 38.101C28.0353 38.8101 27.1978 39.8419 26.597 41.1964C25.9962 42.5419 25.6958 44.1874 25.6958 46.1328C25.6958 48.0783 25.9917 49.7328 26.5834 51.0964C27.1751 52.4601 28.0125 53.5008 29.0958 54.2192C30.1791 54.9285 31.458 55.2827 32.9327 55.2827C34.2709 55.2827 35.4133 55.0464 36.36 54.5739C37.3158 54.0917 38.044 53.4144 38.5447 52.5419C39.0545 51.6692 39.3093 50.6373 39.3093 49.4465L40.5109 49.6237H33.3014V45.1783H45.0033V48.6964C45.0033 51.151 44.4844 53.2601 43.4467 55.0235C42.4089 56.7781 40.9798 58.1328 39.1592 59.0875C37.3386 60.0331 35.254 60.5056 32.9054 60.5056C30.2837 60.5056 27.9807 59.9285 25.9962 58.7739C24.0118 57.6101 22.4642 55.96 21.3537 53.8235C20.2522 51.6783 19.7015 49.1328 19.7015 46.1874C19.7015 43.9237 20.0292 41.9055 20.6846 40.1328C21.3492 38.351 22.2776 36.8419 23.4702 35.6055C24.6626 34.3692 26.0508 33.4283 27.6348 32.7828C29.2187 32.1373 30.9346 31.8146 32.7825 31.8146C34.3664 31.8146 35.8411 32.0465 37.2065 32.5101C38.572 32.9646 39.7827 33.6101 40.8387 34.4465C41.9037 35.2828 42.773 36.2782 43.4467 37.4328C44.1203 38.5782 44.5527 39.8419 44.7439 41.2237H38.7359ZM55.3156 60.5189C53.9778 60.5189 52.7852 60.2875 51.7384 59.8235C50.6915 59.3509 49.8631 58.6555 49.2533 57.7376C48.6525 56.8101 48.3521 55.6555 48.3521 54.2736C48.3521 53.1101 48.5659 52.1328 48.9938 51.3419C49.4216 50.551 50.0042 49.9146 50.7416 49.4328C51.4789 48.951 52.3164 48.5874 53.254 48.3419C54.2005 48.0964 55.1928 47.9237 56.2309 47.8237C57.4507 47.6964 58.4339 47.5783 59.1799 47.4692C59.9265 47.351 60.468 47.1783 60.805 46.951C61.142 46.7237 61.3102 46.3874 61.3102 45.9419V45.8601C61.3102 44.9964 61.0373 44.3283 60.491 43.8555C59.9538 43.3828 59.189 43.1465 58.1968 43.1465C57.15 43.1465 56.3169 43.3783 55.698 43.8419C55.079 44.2964 54.6694 44.8692 54.4691 45.5601L49.0894 45.1237C49.3625 43.851 49.8996 42.751 50.7006 41.8237C51.5017 40.8874 52.5349 40.1692 53.8 39.6692C55.0747 39.1601 56.5492 38.9055 58.224 38.9055C59.3893 38.9055 60.5044 39.0419 61.5698 39.3146C62.6437 39.5874 63.5949 40.0101 64.4232 40.5828C65.2611 41.1555 65.9206 41.8919 66.4034 42.7919C66.8856 43.6828 67.127 44.751 67.127 45.9964V60.1237H61.6104V57.2192H61.4469C61.11 57.8736 60.6592 58.4512 60.0947 58.9509C59.5303 59.4421 58.8526 59.8283 58.0606 60.1099C57.2686 60.3829 56.3538 60.5189 55.3156 60.5189ZM56.9818 56.5099C57.8373 56.5099 58.593 56.3419 59.2483 56.0053C59.9036 55.6603 60.4178 55.1963 60.7911 54.6144C61.1644 54.0331 61.3513 53.3739 61.3513 52.6373V50.4146C61.1692 50.5328 60.9188 50.6419 60.5999 50.7419C60.2907 50.8328 59.9404 50.9192 59.549 51.001C59.1575 51.0737 58.766 51.1419 58.3746 51.2055C57.9831 51.2601 57.628 51.3101 57.3092 51.3555C56.6267 51.4555 56.0307 51.6146 55.5207 51.8328C55.0107 52.051 54.6149 52.3465 54.333 52.7192C54.0504 53.0828 53.9095 53.5376 53.9095 54.0827C53.9095 54.8736 54.1962 55.4784 54.7698 55.8965C55.3524 56.3056 56.0894 56.5099 56.9818 56.5099ZM71.6397 60.1237V39.1783H77.1836V42.8737H77.4292C77.8661 41.6465 78.5945 40.6783 79.614 39.9692C80.6335 39.2601 81.8532 38.9055 83.2733 38.9055C84.7114 38.9055 85.936 39.2646 86.9464 39.9828C87.9568 40.6919 88.6308 41.6555 88.9672 42.8737H89.1856C89.6134 41.6737 90.3872 40.7146 91.5071 39.9964C92.6361 39.2692 93.9696 38.9055 95.5076 38.9055C97.4649 38.9055 99.0537 39.5283 100.273 40.7737C101.502 42.0101 102.116 43.7646 102.116 46.0373V60.1237H96.3135V47.1828C96.3135 46.0192 96.0038 45.1465 95.3848 44.5646C94.7658 43.9828 93.992 43.6919 93.0639 43.6919C92.0075 43.6919 91.184 44.0283 90.5923 44.701C90.0006 45.3646 89.7047 46.2419 89.7047 47.3328V60.1237H84.0652V47.0601C84.0652 46.0328 83.7694 45.2146 83.1777 44.6055C82.595 43.9964 81.826 43.6919 80.8701 43.6919C80.2239 43.6919 79.6412 43.8555 79.1227 44.1828C78.6127 44.501 78.2079 44.951 77.9072 45.5328C77.6071 46.1055 77.4565 46.7783 77.4565 47.551V60.1237H71.6397ZM116.27 60.5328C114.112 60.5328 112.255 60.0965 110.698 59.2235C109.151 58.3419 107.958 57.0965 107.121 55.4875C106.284 53.8693 105.865 51.9555 105.865 49.7465C105.865 47.5919 106.284 45.701 107.121 44.0737C107.958 42.4465 109.137 41.1783 110.657 40.2692C112.187 39.3601 113.98 38.9055 116.037 38.9055C117.421 38.9055 118.709 39.1283 119.902 39.5737C121.103 40.0101 122.15 40.6692 123.042 41.551C123.943 42.4328 124.644 43.5419 125.145 44.8783C125.646 46.2055 125.896 47.7601 125.896 49.5419V51.1373H108.186V47.5373H120.421C120.421 46.701 120.239 45.9601 119.874 45.3146C119.51 44.6692 119.005 44.1646 118.359 43.801C117.722 43.4283 116.979 43.2419 116.133 43.2419C115.25 43.2419 114.467 43.4465 113.784 43.8555C113.111 44.2555 112.583 44.7964 112.2 45.4783C111.818 46.151 111.622 46.901 111.613 47.7283V51.151C111.613 52.1874 111.804 53.0828 112.187 53.8373C112.578 54.592 113.129 55.1739 113.839 55.5829C114.549 55.992 115.391 56.1963 116.365 56.1963C117.011 56.1963 117.603 56.1056 118.14 55.9237C118.677 55.7419 119.137 55.4693 119.519 55.1056C119.902 54.7419 120.193 54.2965 120.393 53.7691L125.773 54.1237C125.5 55.4144 124.94 56.5419 124.093 57.5056C123.256 58.4603 122.173 59.2053 120.844 59.7419C119.524 60.2693 117.999 60.5328 116.27 60.5328Z" fill="white"/>
</g>
<defs>
<filter id="filter0_di_27_147" x="99.387" y="-2.46099" width="86.1507" height="92.7402" filterUnits="userSpaceOnUse" color-interpolation-filters="sRGB">
<feFlood flood-opacity="0" result="BackgroundImageFix"/>
<feColorMatrix in="SourceAlpha" type="matrix" values="0 0 0 0 0 0 0 0 0 0 0 0 0 0 0 0 0 0 127 0" result="hardAlpha"/>
<feOffset/>
<feGaussianBlur stdDeviation="10"/>
<feComposite in2="hardAlpha" operator="out"/>
<feColorMatrix type="matrix" values="0 0 0 0 0 0 0 0 0 0 0 0 0 0 0 0 0 0 1 0"/>
<feBlend mode="normal" in2="BackgroundImageFix" result="effect1_dropShadow_27_147"/>
<feBlend mode="normal" in="SourceGraphic" in2="effect1_dropShadow_27_147" result="shape"/>
<feColorMatrix in="SourceAlpha" type="matrix" values="0 0 0 0 0 0 0 0 0 0 0 0 0 0 0 0 0 0 127 0" result="hardAlpha"/>
<feOffset/>
<feGaussianBlur stdDeviation="10"/>
<feComposite in2="hardAlpha" operator="arithmetic" k2="-1" k3="1"/>
<feColorMatrix type="matrix" values="0 0 0 0 1 0 0 0 0 0 0 0 0 0 0 0 0 0 1 0"/>
<feBlend mode="normal" in2="shape" result="effect2_innerShadow_27_147"/>
</filter>
<filter id="filter1_di_27_147" x="137.833" y="-2.84602" width="76.0326" height="86.5506" filterUnits="userSpaceOnUse" color-interpolation-filters="sRGB">
<feFlood flood-opacity="0" result="BackgroundImageFix"/>
<feColorMatrix in="SourceAlpha" type="matrix" values="0 0 0 0 0 0 0 0 0 0 0 0 0 0 0 0 0 0 127 0" result="hardAlpha"/>
<feOffset/>
<feGaussianBlur stdDeviation="10"/>
<feComposite in2="hardAlpha" operator="out"/>
<feColorMatrix type="matrix" values="0 0 0 0 0 0 0 0 0 0 0 0 0 0 0 0 0 0 1 0"/>
<feBlend mode="normal" in2="BackgroundImageFix" result="effect1_dropShadow_27_147"/>
<feBlend mode="normal" in="SourceGraphic" in2="effect1_dropShadow_27_147" result="shape"/>
<feColorMatrix in="SourceAlpha" type="matrix" values="0 0 0 0 0 0 0 0 0 0 0 0 0 0 0 0 0 0 127 0" result="hardAlpha"/>
<feOffset/>
<feGaussianBlur stdDeviation="10"/>
<feComposite in2="hardAlpha" operator="arithmetic" k2="-1" k3="1"/>
<feColorMatrix type="matrix" values="0 0 0 0 1 0 0 0 0 0 0 0 0 0 0 0 0 0 1 0"/>
<feBlend mode="normal" in2="shape" result="effect2_innerShadow_27_147"/>
</filter>
<filter id="filter2_di_27_147" x="166.455" y="-2.27859" width="86.1507" height="92.7402" filterUnits="userSpaceOnUse" color-interpolation-filters="sRGB">
<feFlood flood-opacity="0" result="BackgroundImageFix"/>
<feColorMatrix in="SourceAlpha" type="matrix" values="0 0 0 0 0 0 0 0 0 0 0 0 0 0 0 0 0 0 127 0" result="hardAlpha"/>
<feOffset/>
<feGaussianBlur stdDeviation="10"/>
<feComposite in2="hardAlpha" operator="out"/>
<feColorMatrix type="matrix" values="0 0 0 0 0 0 0 0 0 0 0 0 0 0 0 0 0 0 1 0"/>
<feBlend mode="normal" in2="BackgroundImageFix" result="effect1_dropShadow_27_147"/>
<feBlend mode="normal" in="SourceGraphic" in2="effect1_dropShadow_27_147" result="shape"/>
<feColorMatrix in="SourceAlpha" type="matrix" values="0 0 0 0 0 0 0 0 0 0 0 0 0 0 0 0 0 0 127 0" result="hardAlpha"/>
<feOffset/>
<feGaussianBlur stdDeviation="10"/>
<feComposite in2="hardAlpha" operator="arithmetic" k2="-1" k3="1"/>
<feColorMatrix type="matrix" values="0 0 0 0 1 0 0 0 0 0 0 0 0 0 0 0 0 0 1 0"/>
<feBlend mode="normal" in2="shape" result="effect2_innerShadow_27_147"/>
</filter>
<clipPath id="clip0_27_147">
<rect width="251" height="88" fill="white"/>
</clipPath>
</defs>
</svg>
